<svg id="visual" viewBox="0 0 1600 800" width="1600" height="800" xmlns="http://www.w3.org/2000/svg" xmlns:xlink="http://www.w3.org/1999/xlink" version="1.1"><path d="M0 623L26.7 627.2C53.3 631.3 106.7 639.7 160 637.8C213.3 636 266.7 624 320 629.7C373.3 635.3 426.7 658.7 480 667.5C533.3 676.3 586.7 670.7 640 667C693.3 663.3 746.7 661.7 800 661.2C853.3 660.7 906.7 661.3 960 651.8C1013.3 642.3 1066.7 622.7 1120 617C1173.3 611.3 1226.7 619.7 1280 619C1333.3 618.3 1386.7 608.7 1440 608.7C1493.3 608.7 1546.7 618.3 1573.3 623.2L1600 628L1600 801L1573.3 801C1546.7 801 1493.3 801 1440 801C1386.7 801 1333.3 801 1280 801C1226.7 801 1173.3 801 1120 801C1066.7 801 1013.3 801 960 801C906.7 801 853.3 801 800 801C746.7 801 693.3 801 640 801C586.7 801 533.3 801 480 801C426.7 801 373.3 801 320 801C266.7 801 213.3 801 160 801C106.7 801 53.3 801 26.7 801L0 801Z" fill="#86a935"></path><path d="M0 656L26.7 663.2C53.3 670.3 106.7 684.7 160 691.2C213.3 697.7 266.7 696.3 320 691.5C373.3 686.7 426.7 678.3 480 676.7C533.3 675 586.7 680 640 674.5C693.3 669 746.7 653 800 652.5C853.3 652 906.7 667 960 677.7C1013.3 688.3 1066.7 694.7 1120 699C1173.3 703.3 1226.7 705.7 1280 695.5C1333.3 685.3 1386.7 662.7 1440 661.3C1493.3 660 1546.7 680 1573.3 690L1600 700L1600 801L1573.3 801C1546.7 801 1493.3 801 1440 801C1386.7 801 1333.3 801 1280 801C1226.7 801 1173.3 801 1120 801C1066.7 801 1013.3 801 960 801C906.7 801 853.3 801 800 801C746.7 801 693.3 801 640 801C586.7 801 533.3 801 480 801C426.7 801 373.3 801 320 801C266.7 801 213.3 801 160 801C106.7 801 53.3 801 26.7 801L0 801Z" fill="#6d9f48"></path><path d="M0 706L26.7 704.3C53.3 702.7 106.7 699.3 160 696.5C213.3 693.7 266.7 691.3 320 696.5C373.3 701.7 426.7 714.3 480 718.2C533.3 722 586.7 717 640 719C693.3 721 746.7 730 800 726.5C853.3 723 906.7 707 960 697C1013.3 687 1066.7 683 1120 688.2C1173.3 693.3 1226.7 707.7 1280 713.8C1333.3 720 1386.7 718 1440 719.5C1493.3 721 1546.7 726 1573.3 728.5L1600 731L1600 801L1573.3 801C1546.7 801 1493.3 801 1440 801C1386.7 801 1333.3 801 1280 801C1226.7 801 1173.3 801 1120 801C1066.7 801 1013.3 801 960 801C906.7 801 853.3 801 800 801C746.7 801 693.3 801 640 801C586.7 801 533.3 801 480 801C426.7 801 373.3 801 320 801C266.7 801 213.3 801 160 801C106.7 801 53.3 801 26.7 801L0 801Z" fill="#599556"></path><path d="M0 747L26.7 743C53.3 739 106.7 731 160 731.7C213.3 732.3 266.7 741.7 320 744C373.3 746.3 426.7 741.7 480 741.2C533.3 740.7 586.7 744.3 640 748.3C693.3 752.3 746.7 756.7 800 752.5C853.3 748.3 906.7 735.7 960 736.7C1013.3 737.7 1066.7 752.3 1120 760C1173.3 767.7 1226.7 768.3 1280 768.3C1333.3 768.3 1386.7 767.7 1440 760.3C1493.3 753 1546.7 739 1573.3 732L1600 725L1600 801L1573.3 801C1546.7 801 1493.3 801 1440 801C1386.7 801 1333.3 801 1280 801C1226.7 801 1173.3 801 1120 801C1066.7 801 1013.3 801 960 801C906.7 801 853.3 801 800 801C746.7 801 693.3 801 640 801C586.7 801 533.3 801 480 801C426.7 801 373.3 801 320 801C266.7 801 213.3 801 160 801C106.7 801 53.3 801 26.7 801L0 801Z" fill="#4d8960"></path></svg>