<svg id="visual" viewBox="0 0 960 540" width="960" height="540" xmlns="http://www.w3.org/2000/svg" xmlns:xlink="http://www.w3.org/1999/xlink" version="1.1"><rect width="960" height="540" fill="#0e3627"></rect><g><g transform="translate(771 498)"><path d="M0 -109.8L95.1 -54.9L95.1 54.9L0 109.8L-95.1 54.9L-95.1 -54.9Z" fill="#124331"></path></g><g transform="translate(415 183)"><path d="M0 -41L35.5 -20.5L35.5 20.5L0 41L-35.5 20.5L-35.5 -20.5Z" fill="#124331"></path></g><g transform="translate(280 424)"><path d="M0 -82L71 -41L71 41L0 82L-71 41L-71 -41Z" fill="#124331"></path></g><g transform="translate(880 221)"><path d="M0 -103L89.2 -51.5L89.2 51.5L0 103L-89.2 51.5L-89.2 -51.5Z" fill="#124331"></path></g><g transform="translate(49 164)"><path d="M0 -104L90.1 -52L90.1 52L0 104L-90.1 52L-90.1 -52Z" fill="#124331"></path></g><g transform="translate(639 268)"><path d="M0 -43L37.2 -21.5L37.2 21.5L0 43L-37.2 21.5L-37.2 -21.5Z" fill="#124331"></path></g></g></svg>